<?xml version="1.0" encoding="UTF-8" standalone="no"?>
<!-- Created with Inkscape (http://www.inkscape.org/) -->

<svg
   xmlns:dc="http://purl.org/dc/elements/1.1/"
   xmlns:cc="http://creativecommons.org/ns#"
   xmlns:rdf="http://www.w3.org/1999/02/22-rdf-syntax-ns#"
   xmlns:svg="http://www.w3.org/2000/svg"
   xmlns="http://www.w3.org/2000/svg"
   xmlns:sodipodi="http://sodipodi.sourceforge.net/DTD/sodipodi-0.dtd"
   xmlns:inkscape="http://www.inkscape.org/namespaces/inkscape"
   width="210mm"
   height="297mm"
   id="svg2"
   version="1.1"
   inkscape:version="0.48.2 r9819"
   sodipodi:docname="t.svg">
  <defs
     id="defs4" />
  <sodipodi:namedview
     id="base"
     pagecolor="#ffffff"
     bordercolor="#666666"
     borderopacity="1.0"
     inkscape:pageopacity="0.0"
     inkscape:pageshadow="2"
     inkscape:zoom="1.979899"
     inkscape:cx="299.49237"
     inkscape:cy="638.52486"
     inkscape:document-units="px"
     inkscape:current-layer="layer1"
     showgrid="false"
     inkscape:window-width="2263"
     inkscape:window-height="1426"
     inkscape:window-x="4"
     inkscape:window-y="0"
     inkscape:window-maximized="0" />
  <metadata
     id="metadata7">
    <rdf:RDF>
      <cc:Work
         rdf:about="">
        <dc:format>image/svg+xml</dc:format>
        <dc:type
           rdf:resource="http://purl.org/dc/dcmitype/StillImage" />
        <dc:title />
      </cc:Work>
    </rdf:RDF>
  </metadata>
  <g
     inkscape:label="Ebene 1"
     inkscape:groupmode="layer"
     id="layer1">
    <path
       style="fill:#000000;stroke:#000000;stroke-width:1px;stroke-linecap:butt;stroke-linejoin:miter;stroke-opacity:1"
       d="M 651.26543,416.70428 C 606.9603,414.32543 412.58362,523.59547 412.58362,523.59547 l 4.18116,-46.41718 -27.35878,-19.9303 -2.09098,64.16452 c 0,0 -6.05481,-64.51194 -71.12073,-91.82529 C 249.31243,401.51156 78.029083,523.71688 88.464941,605.4313 103.47091,722.93044 327.83208,589.36496 373.24459,571.80961 c 0,0 -0.30036,115.07076 4.23601,130.28111 4.53637,15.21035 30.15973,16.56 33.67759,15.88956 -10.36263,-58.31278 -12.31591,-99.98935 -4.59768,-158.51195 166.77981,-96.35488 231.54696,-113.91386 251.63894,-120.08405 9.13368,-8.01011 8.65828,-16.74622 -6.93402,-22.68 z M 369.70648,540.97675 c -147.51874,82.25536 -227.60454,115.7148 -255.16819,77.02489 -27.563655,-38.68993 127.04777,-176.5337 173.16009,-174.27383 69.07019,3.38498 71.29945,54.49377 82.0081,97.24894 z"
       id="path3070"
       inkscape:connector-curvature="0"
       sodipodi:nodetypes="cccccsscscccccssc" />
  </g>
</svg>
