<?xml version="1.0" encoding="UTF-8" standalone="no"?>
<!-- Created with Inkscape (http://www.inkscape.org/) -->

<svg
   xmlns:dc="http://purl.org/dc/elements/1.1/"
   xmlns:cc="http://creativecommons.org/ns#"
   xmlns:rdf="http://www.w3.org/1999/02/22-rdf-syntax-ns#"
   xmlns:svg="http://www.w3.org/2000/svg"
   xmlns="http://www.w3.org/2000/svg"
   xmlns:sodipodi="http://sodipodi.sourceforge.net/DTD/sodipodi-0.dtd"
   xmlns:inkscape="http://www.inkscape.org/namespaces/inkscape"
   width="512"
   height="512"
   id="svg2"
   version="1.1"
   inkscape:version="0.48.2 r9819"
   sodipodi:docname="t.svg">
  <defs
     id="defs4" />
  <sodipodi:namedview
     id="base"
     pagecolor="#ffffff"
     bordercolor="#666666"
     borderopacity="1.0"
     inkscape:pageopacity="0.0"
     inkscape:pageshadow="2"
     inkscape:zoom="0.70000001"
     inkscape:cx="299.49237"
     inkscape:cy="638.52486"
     inkscape:document-units="px"
     inkscape:current-layer="layer1"
     showgrid="false"
     inkscape:window-width="2263"
     inkscape:window-height="1426"
     inkscape:window-x="4"
     inkscape:window-y="0"
     inkscape:window-maximized="0" />
  <metadata
     id="metadata7">
    <rdf:RDF>
      <cc:Work
         rdf:about="">
        <dc:format>image/svg+xml</dc:format>
        <dc:type
           rdf:resource="http://purl.org/dc/dcmitype/StillImage" />
        <dc:title />
      </cc:Work>
    </rdf:RDF>
  </metadata>
  <g
     inkscape:label="Ebene 1"
     inkscape:groupmode="layer"
     id="layer1"
     transform="translate(0,-540.36218)">
    <path
       style="fill:#000000;stroke:#000000;stroke-width:0.86547506px;stroke-linecap:butt;stroke-linejoin:miter;stroke-opacity:1"
       d="m 476.75529,669.49163 c -35.52792,-2.22209 -191.39702,99.84703 -191.39702,99.84703 l 3.35283,-43.35827 -21.93879,-18.61689 -1.67673,59.93606 c 0,0 -4.85531,-60.26058 -57.03115,-85.77398 C 154.43241,655.3001 17.081669,769.45208 25.4501,845.7815 c 12.033165,109.75597 191.94659,-15.00757 228.36252,-31.40601 0,0 -0.24086,107.48758 3.39681,121.69556 3.63769,14.208 24.18485,15.46866 27.00579,14.84244 -8.30971,-54.46996 -9.87602,-93.40004 -3.68684,-148.06599 133.73939,-90.00508 185.67565,-106.40692 201.78725,-112.17049 7.32422,-7.48224 6.943,-15.64264 -5.56034,-21.18538 z M 250.97543,785.57452 C 132.68133,862.40924 68.461175,893.66369 46.358109,857.52346 24.255035,821.38319 148.23669,692.62336 185.2138,694.7343 c 55.38682,3.16191 57.17445,50.90262 65.76163,90.84022 z"
       id="path3070"
       inkscape:connector-curvature="0"
       sodipodi:nodetypes="cccccsscscccccssc" />
  </g>
</svg>
